<?xml version="1.0" encoding="UTF-8" standalone="no"?>
<svg width="297mm" height="210mm" viewBox="0 0 297 210" version="1.1" id="svg5" xmlns="http://www.w3.org/2000/svg" xmlns:svg="http://www.w3.org/2000/svg">
<g id="checkers">
<rect width="20" height="20" x="8.5" y="5"></rect>
<rect width="20" height="20" x="48.5" y="5"></rect>
<rect width="20" height="20" x="88.5" y="5"></rect>
<rect width="20" height="20" x="128.5" y="5"></rect>
<rect width="20" height="20" x="168.5" y="5"></rect>
<rect width="20" height="20" x="208.5" y="5"></rect>
<rect width="20" height="20" x="248.5" y="5"></rect>
<rect width="20" height="20" x="28.5" y="25"></rect>
<rect width="20" height="20" x="68.5" y="25"></rect>
<rect width="20" height="20" x="108.5" y="25"></rect>
<rect width="20" height="20" x="148.5" y="25"></rect>
<rect width="20" height="20" x="188.5" y="25"></rect>
<rect width="20" height="20" x="228.5" y="25"></rect>
<rect width="20" height="20" x="268.5" y="25"></rect>
<rect width="20" height="20" x="8.5" y="45"></rect>
<rect width="20" height="20" x="48.5" y="45"></rect>
<rect width="20" height="20" x="88.5" y="45"></rect>
<rect width="20" height="20" x="128.5" y="45"></rect>
<rect width="20" height="20" x="168.5" y="45"></rect>
<rect width="20" height="20" x="208.5" y="45"></rect>
<rect width="20" height="20" x="248.5" y="45"></rect>
<rect width="20" height="20" x="28.5" y="65"></rect>
<rect width="20" height="20" x="68.5" y="65"></rect>
<rect width="20" height="20" x="108.5" y="65"></rect>
<rect width="20" height="20" x="148.5" y="65"></rect>
<rect width="20" height="20" x="188.5" y="65"></rect>
<rect width="20" height="20" x="228.5" y="65"></rect>
<rect width="20" height="20" x="268.5" y="65"></rect>
<rect width="20" height="20" x="8.5" y="85"></rect>
<rect width="20" height="20" x="48.5" y="85"></rect>
<rect width="20" height="20" x="88.5" y="85"></rect>
<rect width="20" height="20" x="128.5" y="85"></rect>
<rect width="20" height="20" x="168.5" y="85"></rect>
<rect width="20" height="20" x="208.5" y="85"></rect>
<rect width="20" height="20" x="248.5" y="85"></rect>
<rect width="20" height="20" x="28.5" y="105"></rect>
<rect width="20" height="20" x="68.5" y="105"></rect>
<rect width="20" height="20" x="108.5" y="105"></rect>
<rect width="20" height="20" x="148.5" y="105"></rect>
<rect width="20" height="20" x="188.5" y="105"></rect>
<rect width="20" height="20" x="228.5" y="105"></rect>
<rect width="20" height="20" x="268.5" y="105"></rect>
<rect width="20" height="20" x="8.5" y="125"></rect>
<rect width="20" height="20" x="48.5" y="125"></rect>
<rect width="20" height="20" x="88.5" y="125"></rect>
<rect width="20" height="20" x="128.5" y="125"></rect>
<rect width="20" height="20" x="168.5" y="125"></rect>
<rect width="20" height="20" x="208.5" y="125"></rect>
<rect width="20" height="20" x="248.5" y="125"></rect>
<rect width="20" height="20" x="28.5" y="145"></rect>
<rect width="20" height="20" x="68.5" y="145"></rect>
<rect width="20" height="20" x="108.5" y="145"></rect>
<rect width="20" height="20" x="148.5" y="145"></rect>
<rect width="20" height="20" x="188.5" y="145"></rect>
<rect width="20" height="20" x="228.5" y="145"></rect>
<rect width="20" height="20" x="268.5" y="145"></rect>
<rect width="20" height="20" x="8.5" y="165"></rect>
<rect width="20" height="20" x="48.5" y="165"></rect>
<rect width="20" height="20" x="88.5" y="165"></rect>
<rect width="20" height="20" x="128.5" y="165"></rect>
<rect width="20" height="20" x="168.5" y="165"></rect>
<rect width="20" height="20" x="208.5" y="165"></rect>
<rect width="20" height="20" x="248.5" y="165"></rect>
<rect width="20" height="20" x="28.5" y="185"></rect>
<rect width="20" height="20" x="68.5" y="185"></rect>
<rect width="20" height="20" x="108.5" y="185"></rect>
<rect width="20" height="20" x="148.5" y="185"></rect>
<rect width="20" height="20" x="188.5" y="185"></rect>
<rect width="20" height="20" x="228.5" y="185"></rect>
<rect width="20" height="20" x="268.5" y="185"></rect>

</g>
</svg>
